<?xml version="1.0" encoding="UTF-8"?>
<svg id="Layer_1" data-name="Layer 1" xmlns="http://www.w3.org/2000/svg" viewBox="0 0 1082.87 1082.97">
  <defs>
    <style>
      .cls-1 {
        stroke-width: 0px;
      }
    </style>
  </defs>
  <rect class="cls-1" x="930.19" y="669.38" width="37.69" height="24.22"/>
  <rect class="cls-1" x="544.52" y="623.63" width="446.43" height="24.22"/>
  <rect class="cls-1" x="544.52" y="669.38" width="359.53" height="24.22"/>
  <rect class="cls-1" x="1052" y="782.93" width="30.87" height="24.22"/>
  <polygon class="cls-1" points="1025.37 807.14 893.8 807.14 826 739.34 544.52 739.34 544.52 715.12 836.03 715.12 903.84 782.93 1025.37 782.93 1025.37 807.14"/>
  <rect class="cls-1" x="930.19" y="906.95" width="37.69" height="24.22"/>
  <rect class="cls-1" x="544.52" y="861.2" width="446.43" height="24.22"/>
  <rect class="cls-1" x="544.52" y="906.95" width="359.53" height="24.22"/>
  <rect class="cls-1" x="1052" y="1020.5" width="30.87" height="24.22"/>
  <polygon class="cls-1" points="1025.37 1044.71 893.8 1044.71 826 976.91 544.52 976.91 544.52 952.69 836.03 952.69 903.84 1020.5 1025.37 1020.5 1025.37 1044.71"/>
  <rect class="cls-1" x="930.19" y="499.61" width="37.69" height="24.22"/>
  <rect class="cls-1" x="544.52" y="545.35" width="446.43" height="24.22"/>
  <rect class="cls-1" x="544.52" y="499.61" width="359.53" height="24.22"/>
  <rect class="cls-1" x="1052" y="325.52" width="30.87" height="24.22"/>
  <polygon class="cls-1" points="836.03 417.54 544.52 417.54 544.52 393.32 826 393.32 893.8 325.52 1025.37 325.52 1025.37 349.73 903.84 349.73 836.03 417.54"/>
  <rect class="cls-1" x="1052" y="386.06" width="30.87" height="24.22"/>
  <polygon class="cls-1" points="836.03 478.08 544.52 478.08 544.52 453.86 826 453.86 893.8 386.06 1025.37 386.06 1025.37 410.28 903.84 410.28 836.03 478.08"/>
  <rect class="cls-1" x="930.19" y="188.98" width="37.69" height="24.22"/>
  <rect class="cls-1" x="544.52" y="234.73" width="446.43" height="24.22"/>
  <rect class="cls-1" x="544.52" y="188.98" width="359.53" height="24.22"/>
  <rect class="cls-1" x="1052" y="75.43" width="30.87" height="24.22"/>
  <polygon class="cls-1" points="836.03 167.45 544.52 167.45 544.52 143.24 826 143.24 893.8 75.43 1025.37 75.43 1025.37 99.65 903.84 99.65 836.03 167.45"/>
  <rect class="cls-1" x="739.27" y="765.29" width="37.69" height="24.22"/>
  <rect class="cls-1" x="544.52" y="811.04" width="264.8" height="24.22"/>
  <rect class="cls-1" x="544.52" y="765.29" width="177.9" height="24.22"/>
  <rect class="cls-1" x="739.27" y="290.53" width="37.69" height="24.22"/>
  <rect class="cls-1" x="544.52" y="336.28" width="264.8" height="24.22"/>
  <rect class="cls-1" x="544.52" y="290.53" width="177.9" height="24.22"/>
  <rect class="cls-1" x="491.22" width="65.42" height="1082.97"/>
  <g>
    <path class="cls-1" d="m491.22,305.11V54.77h-69.38v89.79c-24.55,4.24-48.4,10.66-71.26,19.1l-44.89-77.77-120.15,69.35,44.98,77.95c-18.89,15.77-36.33,33.21-52.1,52.1l-77.95-44.98-69.35,120.15,77.77,44.89c-8.45,22.85-14.86,46.71-19.1,71.26H0v138.76h89.79c4.24,24.55,10.66,48.4,19.1,71.26l-77.77,44.89,69.35,120.15,77.95-44.98c15.77,18.89,33.21,36.33,52.1,52.1l-44.98,77.95,120.15,69.35,44.89-77.77c22.86,8.45,46.71,14.86,71.26,19.1v89.79h69.38v-250.34c-132.83,0-240.87-108.04-240.87-240.87s108.04-240.87,240.87-240.87Z"/>
    <path class="cls-1" d="m491.22,434.49v-96.87c-114.88,0-208.36,93.48-208.36,208.36s93.48,208.36,208.36,208.36v-96.87c-61.48,0-111.49-50.01-111.49-111.49s50.01-111.49,111.49-111.49Z"/>
  </g>
</svg>